<?xml version="1.0" encoding="UTF-8" standalone="no"?>
<svg
   xmlns:dc="http://purl.org/dc/elements/1.1/"
   xmlns:cc="http://creativecommons.org/ns#"
   xmlns:rdf="http://www.w3.org/1999/02/22-rdf-syntax-ns#"
   xmlns:svg="http://www.w3.org/2000/svg"
   xmlns="http://www.w3.org/2000/svg"
   xmlns:sodipodi="http://sodipodi.sourceforge.net/DTD/sodipodi-0.dtd"
   xmlns:inkscape="http://www.inkscape.org/namespaces/inkscape"
   width="146.77499"
   height="162.795"
   viewBox="0 0 38.834217 43.072842"
   version="1.1"
   id="svg885"
   inkscape:version="1.0.2 (e86c8708, 2021-01-15)"
   sodipodi:docname="litedb-icon.svg">
  <defs
     id="defs879" />
  <sodipodi:namedview
     id="base"
     pagecolor="#ffffff"
     bordercolor="#666666"
     borderopacity="1.0"
     inkscape:pageopacity="0.0"
     inkscape:pageshadow="2"
     inkscape:zoom="0.98994949"
     inkscape:cx="136.16368"
     inkscape:cy="253.27618"
     inkscape:document-units="mm"
     inkscape:current-layer="layer1"
     inkscape:document-rotation="0"
     showgrid="false"
     units="px"
     inkscape:window-width="1252"
     inkscape:window-height="943"
     inkscape:window-x="0"
     inkscape:window-y="25"
     inkscape:window-maximized="0" />
  <metadata
     id="metadata882">
    <rdf:RDF>
      <cc:Work
         rdf:about="">
        <dc:format>image/svg+xml</dc:format>
        <dc:type
           rdf:resource="http://purl.org/dc/dcmitype/StillImage" />
        <dc:title></dc:title>
      </cc:Work>
    </rdf:RDF>
  </metadata>
  <g
     inkscape:label="Layer 1"
     inkscape:groupmode="layer"
     id="layer1">
    <path
       fill="#607d8a"
       id="svg_3"
       d="m 6.5021232,22.546948 c 3.4779421,1.079222 8.0645198,1.673731 12.9151388,1.673731 1.911085,0 3.793067,-0.09234 5.594086,-0.274103 1.09035,-0.110065 1.884889,-1.083453 1.774824,-2.173785 -0.110332,-1.090333 -1.083998,-1.885926 -2.173815,-1.774803 -1.668728,0.16854 -3.416565,0.254 -5.195095,0.254 -9.9031287,0 -15.024655,-2.461121 -15.448781,-3.468904 v -4.640766 c 0.7164892,0.342108 1.553628,0.669399 2.5333763,0.97367 3.4779429,1.079225 8.0645207,1.673743 12.9151407,1.673743 4.85062,0 9.437144,-0.594518 12.91504,-1.673743 5.374204,-1.667941 6.502123,-4.031746 6.502123,-5.721121 0,-1.689375 -1.12818,-4.053167 -6.502123,-5.721106 C 28.854142,0.594521 24.267869,0 19.416998,0 14.566127,0 9.9800643,0.594782 6.5021232,1.674023 1.128184,3.341698 0,5.705758 0,7.395129 v 28.283198 c 0,3.060435 3.5358891,4.800332 6.5021232,5.720818 3.478206,1.079235 8.0645198,1.673757 12.9151388,1.673757 1.909233,0 3.790685,-0.09234 5.592235,-0.273847 1.090346,-0.109799 1.885156,-1.083201 1.77509,-2.173549 -0.109801,-1.090348 -1.08162,-1.887802 -2.173554,-1.77509 -1.669521,0.168537 -3.416829,0.253736 -5.193771,0.253736 -9.9025997,0 -15.0243908,-2.46089 -15.448781,-3.468688 v -4.171129 c 0.84587,0.409302 1.7414821,0.740293 2.590262,1.003813 3.477943,1.079225 8.064521,1.673741 12.91514,1.673741 1.816894,0 3.611298,-0.08334 5.333737,-0.248179 1.090876,-0.104508 1.890709,-1.073407 1.786466,-2.164268 -0.104512,-1.091129 -1.078176,-1.891477 -2.164292,-1.78644 -1.597291,0.152661 -3.26496,0.230182 -4.955911,0.230182 -9.9055088,0 -15.027301,-2.462438 -15.449045,-3.469429 -0.0032,-0.146047 -0.02328,-0.287332 -0.05636,-0.424124 v -4.70872 c 0.829467,0.396606 1.7036469,0.718599 2.533642,0.976036 z M 8.2922883,5.283745 C 11.327327,4.435754 15.278112,3.968761 19.417526,3.968761 c 4.139141,0 8.089899,0.466993 11.124897,1.314984 3.006683,0.840057 4.087776,1.765572 4.299706,2.11112 -0.21193,0.345811 -1.293023,1.27133 -4.299706,2.111122 -3.034998,0.847997 -6.985756,1.314989 -11.124897,1.314989 -4.139414,0 -8.090199,-0.466992 -11.1252377,-1.314989 C 5.285572,8.665931 4.204488,7.740411 3.9925581,7.394865 4.204488,7.049317 5.285572,6.123802 8.2922883,5.283745 Z"
       style="stroke-width:0.264583" />
  </g>
</svg>
